<svg width="24" height="24" viewBox="0 0 24 24" fill="none" xmlns="http://www.w3.org/2000/svg">
<path d="M21.548 7.837L18.875 10.51C18.6875 10.6976 18.4331 10.8031 18.1679 10.8032C17.9026 10.8033 17.6481 10.698 17.4605 10.5105C17.2729 10.323 17.1674 10.0686 17.1673 9.80335C17.1672 9.53808 17.2725 9.28364 17.46 9.096L18.556 8H17.1C15.9175 8.00001 14.7701 8.40149 13.8456 9.13871C12.9211 9.87593 12.2742 10.9052 12.011 12.058C12.3038 13.1864 12.9628 14.1856 13.8847 14.8991C14.8066 15.6125 15.9393 15.9997 17.105 16H18.607L17.46 14.853C17.2725 14.6654 17.1672 14.4109 17.1673 14.1456C17.1674 13.8804 17.2729 13.626 17.4605 13.4385C17.6481 13.251 17.9026 13.1457 18.1679 13.1458C18.4331 13.1459 18.6875 13.2514 18.875 13.439L21.703 16.267C21.8552 16.419 21.9542 16.6161 21.985 16.829C22.0177 17.0213 21.9938 17.219 21.9163 17.3979C21.8387 17.5769 21.7107 17.7294 21.548 17.837L18.875 20.51C18.6875 20.6976 18.4331 20.8031 18.1679 20.8032C17.9026 20.8033 17.6481 20.698 17.4605 20.5105C17.2729 20.323 17.1674 20.0686 17.1673 19.8034C17.1672 19.5381 17.2725 19.2836 17.46 19.096L18.556 18H17.105C15.8877 18.0002 14.6898 17.6944 13.6215 17.1108C12.5531 16.5272 11.6486 15.6844 10.991 14.66C10.3386 15.6838 9.4385 16.5266 8.37403 17.1104C7.30955 17.6942 6.11505 18.0002 4.901 18H3C2.73478 18 2.48043 17.8946 2.29289 17.7071C2.10536 17.5196 2 17.2652 2 17C2 16.7348 2.10536 16.4804 2.29289 16.2929C2.48043 16.1054 2.73478 16 3 16H4.901C6.06203 16.0001 7.18995 15.6131 8.10638 14.9002C9.0228 14.1874 9.67541 13.1894 9.961 12.064C9.69048 10.9078 9.0369 9.877 8.10647 9.1392C7.17605 8.40139 6.02346 7.99991 4.836 8H3C2.73478 8 2.48043 7.89464 2.29289 7.70711C2.10536 7.51957 2 7.26522 2 7C2 6.73478 2.10536 6.48043 2.29289 6.29289C2.48043 6.10536 2.73478 6 3 6H4.836C6.06262 5.99997 7.26928 6.31057 8.34345 6.90282C9.41762 7.49508 10.3243 8.3497 10.979 9.387C11.6286 8.34999 12.5312 7.49512 13.6019 6.90265C14.6726 6.31019 15.8763 5.99958 17.1 6H18.608L17.46 4.853C17.3672 4.76009 17.2935 4.6498 17.2433 4.52843C17.1931 4.40707 17.1673 4.277 17.1673 4.14565C17.1673 4.0143 17.1933 3.88425 17.2436 3.76291C17.2939 3.64158 17.3676 3.53134 17.4605 3.4385C17.5534 3.34566 17.6637 3.27202 17.7851 3.2218C17.9064 3.17158 18.0365 3.14575 18.1679 3.1458C18.2992 3.14584 18.4293 3.17176 18.5506 3.22207C18.6719 3.27238 18.7822 3.34609 18.875 3.439L21.703 6.267C21.8552 6.41897 21.9542 6.61613 21.985 6.829C22.0177 7.0213 21.9938 7.21896 21.9163 7.39792C21.8387 7.57689 21.7107 7.72944 21.548 7.837Z" fill="black"/>
</svg>
