<svg width="32" height="32" viewBox="0 0 32 32" fill="none" xmlns="http://www.w3.org/2000/svg">
<path d="M25.6 28.746C27.3673 28.746 28.8 27.3133 28.8 25.546V13.8702C28.8 12.1271 27.8922 10.5098 26.4042 9.60193L18.6042 4.84293C17.0051 3.8673 14.9949 3.8673 13.3958 4.84293L5.59581 9.60193C4.10779 10.5098 3.2 12.1271 3.2 13.8702V25.546C3.2 27.3133 4.63269 28.746 6.4 28.746V28.746C8.16731 28.746 9.6 27.3133 9.6 25.546V24.2717C9.6 22.5457 10.2743 20.8903 11.4745 19.6698C12.6747 18.4494 14.3026 17.7637 16 17.7637C17.6974 17.7637 19.3253 18.4494 20.5255 19.6698C21.7257 20.8903 22.4 22.5457 22.4 24.2717V25.546C22.4 27.3133 23.8327 28.746 25.6 28.746V28.746ZM24.2 32C21.4386 32 19.2 29.7614 19.2 27V24.2717C19.2 23.4087 18.8629 22.581 18.2627 21.9708C17.6626 21.3605 16.8487 21.0177 16 21.0177C15.1513 21.0177 14.3374 21.3605 13.7373 21.9708C13.1371 22.581 12.8 23.4087 12.8 24.2717V27C12.8 29.7614 10.5614 32 7.8 32H3.2C2.35131 32 1.53737 31.6572 0.937258 31.0469C0.337142 30.4367 1.48143e-10 29.609 1.48143e-10 28.746V11.0637C-5.31639e-06 10.5018 0.143089 9.94941 0.415349 9.46042C0.687609 8.97143 1.07975 8.56247 1.5536 8.27336L14.3536 0.463728C14.8509 0.160289 15.42 0 16 0C16.58 0 17.1491 0.160289 17.6464 0.463728L30.4464 8.27336C30.9202 8.56247 31.3124 8.97143 31.5847 9.46042C31.8569 9.94941 32 10.5018 32 11.0637V28.746C32 29.609 31.6629 30.4367 31.0627 31.0469C30.4626 31.6572 29.6487 32 28.8 32H24.2Z" fill="black"/>
</svg>
