<svg width="28" height="28"   viewBox="0 0 28 28" fill="none" xmlns="http://www.w3.org/2000/svg"><g transform="translate(9,6)">

<path d="M6.5 3C7.32812 3 8 2.32812 8 1.5C8 0.671875 7.32812 0 6.5 0C5.67187 0 5 0.671875 5 1.5C5 2.32812 5.67187 3 6.5 3ZM9.45312 7.65938L8.725 7.29063L8.42187 6.37187C7.9625 4.97812 6.68125 4.00313 5.22812 4C4.10312 3.99687 3.48125 4.31562 2.3125 4.7875C1.6375 5.05937 1.08437 5.575 0.759372 6.23125L0.549997 6.65625C0.306247 7.15 0.503122 7.75 0.993747 7.99687C1.48125 8.24375 2.075 8.04375 2.32187 7.55L2.53125 7.125C2.64062 6.90625 2.82187 6.73438 3.04687 6.64375L3.88437 6.30625L3.40937 8.20312C3.24687 8.85312 3.42187 9.54375 3.875 10.0406L5.74687 12.0844C5.97187 12.3313 6.13125 12.6281 6.2125 12.95L6.78437 15.2406C6.91875 15.775 7.4625 16.1031 7.99687 15.9688C8.53125 15.8344 8.85937 15.2906 8.725 14.7563L8.03125 11.975C7.95 11.6531 7.79062 11.3531 7.56562 11.1094L6.14375 9.55625L6.68125 7.40938L6.85312 7.925C7.01875 8.42813 7.375 8.84375 7.84375 9.08125L8.57187 9.45C9.05937 9.69687 9.65312 9.49688 9.9 9.00313C10.1406 8.5125 9.94375 7.90625 9.45312 7.65938ZM2.3 12.0562C2.2 12.3094 2.05 12.5375 1.85625 12.7281L0.293747 14.2937C-0.0968781 14.6844 -0.0968781 15.3188 0.293747 15.7094C0.684372 16.1 1.31562 16.1 1.70625 15.7094L3.5625 13.8531C3.75312 13.6625 3.90312 13.4344 4.00625 13.1812L4.42812 12.125C2.7 10.2406 3.21875 10.8187 2.94687 10.4469L2.3 12.0562Z" fill="#3498DB"/>

</g></svg>